<svg xmlns="http://www.w3.org/2000/svg" viewBox="0 0 252.07 135.44"><defs><style>.cls-1{fill:#9a5762;}.cls-2{fill:#f5f4f2;}</style></defs><g id="Calque_2" data-name="Calque 2"><g id="Calque_1-2" data-name="Calque 1"><path class="cls-1" d="M79.45,76.49V32.82h2.67V76.49Z"/><path class="cls-2" d="M109.55,77.21a19,19,0,0,1-8-1.46,10.53,10.53,0,0,1-4.57-3.85,11,11,0,0,1-1.67-5.2h2.88a7.47,7.47,0,0,0,3.2,6.1q3,2.07,8.21,2.07a13.64,13.64,0,0,0,5-.9,9.85,9.85,0,0,0,3.78-2.5,5.22,5.22,0,0,0,1.46-3.62,4.77,4.77,0,0,0-1.91-4,17.26,17.26,0,0,0-6.08-2.5l-5.72-1.55A15.94,15.94,0,0,1,99,56.15a7.73,7.73,0,0,1-2.43-5.73,7.28,7.28,0,0,1,3.31-6.22,14.48,14.48,0,0,1,8.54-2.34q5.89,0,9.23,2.23a7.15,7.15,0,0,1,3.55,5.54h-3a5.48,5.48,0,0,0-3-4.17,14.5,14.5,0,0,0-6.78-1.34,10,10,0,0,0-6.74,2.06,5.83,5.83,0,0,0-2.37,4.39q0,4.68,8,6.8l5.36,1.48A18.45,18.45,0,0,1,120,62.29a7,7,0,0,1,2.48,5.56A7.73,7.73,0,0,1,121,72.4a10.74,10.74,0,0,1-4.39,3.48A16.78,16.78,0,0,1,109.55,77.21Z"/><path class="cls-2" d="M143.86,77.21a12.82,12.82,0,0,1-6.54-1.48A9.67,9.67,0,0,1,133.56,72a9.45,9.45,0,0,1-1.22-4.59,8.87,8.87,0,0,1,1.76-5.82,9.67,9.67,0,0,1,4.59-3.06,19.42,19.42,0,0,1,6-.92,24.92,24.92,0,0,1,5.45.67,30.52,30.52,0,0,1,5.57,1.82v2a25.58,25.58,0,0,0-5.44-1.75,27.55,27.55,0,0,0-5.62-.66A12.53,12.53,0,0,0,138,61.49c-1.88,1.17-2.83,3.14-2.83,5.93a7.49,7.49,0,0,0,2.06,5.34q2,2.17,6.62,2.18a11.54,11.54,0,0,0,5.67-1.48,13.52,13.52,0,0,0,4.36-3.7,7.47,7.47,0,0,0,1.67-4.47h.72a11.48,11.48,0,0,1-1.58,5.83,12.2,12.2,0,0,1-10.8,6.09Zm12-.72-.36-6.59V54.38c0-3.76-.83-6.42-2.5-8a9.66,9.66,0,0,0-6.82-2.31,14.63,14.63,0,0,0-4.54.69,7.32,7.32,0,0,0-3.46,2.25,6.34,6.34,0,0,0-1.33,4.23H133.7a8.34,8.34,0,0,1,1.77-5.6,9.65,9.65,0,0,1,4.62-2.95,20.61,20.61,0,0,1,6.11-.88,14.51,14.51,0,0,1,6.08,1.22,9.43,9.43,0,0,1,4.3,4,14.47,14.47,0,0,1,1.6,7.32V76.49Z"/><path class="cls-2" d="M172.58,76.49V27.67h2.67V69l-.33,7.49Zm13.65.72a12.1,12.1,0,0,1-6.5-1.78,12.45,12.45,0,0,1-4.52-5.06,17,17,0,0,1-1.65-7.74h1.69a13.24,13.24,0,0,0,1.6,6.8A10.69,10.69,0,0,0,181,73.54a11,11,0,0,0,5.33,1.36,10,10,0,0,0,5.76-1.81,12.84,12.84,0,0,0,4.3-5.3A19.49,19.49,0,0,0,198,59.42a19,19,0,0,0-1.64-8.29,12.74,12.74,0,0,0-4.3-5.21,10.21,10.21,0,0,0-5.83-1.8,10.86,10.86,0,0,0-5.29,1.39,10.62,10.62,0,0,0-4.11,4.14,13.72,13.72,0,0,0-1.58,6.89h-1.69a17.21,17.21,0,0,1,1.65-7.79,12.44,12.44,0,0,1,4.54-5.09,12.09,12.09,0,0,1,6.55-1.8,13.29,13.29,0,0,1,7.22,2.1,15.17,15.17,0,0,1,5.36,6,20.26,20.26,0,0,1,2,9.41,20.57,20.57,0,0,1-2,9.47,15.41,15.41,0,0,1-5.38,6.16A13.16,13.16,0,0,1,186.23,77.21Z"/><path class="cls-2" d="M224.53,77.21a13.28,13.28,0,0,1-7.77-2.29,15,15,0,0,1-5.15-6.24,21,21,0,0,1-1.84-9,23,23,0,0,1,1.82-9.54,13.5,13.5,0,0,1,12.94-8.31,11.93,11.93,0,0,1,6.14,1.47,11.44,11.44,0,0,1,4,4,19,19,0,0,1,2.22,5.76,32.28,32.28,0,0,1,.68,6.66H212v-2.3h24.23l-1.66,1.08a25.34,25.34,0,0,0-.3-5.06,15.48,15.48,0,0,0-1.53-4.66,8.91,8.91,0,0,0-3.14-3.42,9.29,9.29,0,0,0-5.11-1.3,10.58,10.58,0,0,0-6.71,2.09,12.63,12.63,0,0,0-4,5.38,18.6,18.6,0,0,0-1.31,6.9v1.22a21.54,21.54,0,0,0,1.31,7.69,12,12,0,0,0,4,5.45,12.23,12.23,0,0,0,13.57-.07,8.71,8.71,0,0,0,3.11-6.16h3a12.6,12.6,0,0,1-2.34,5.82A11.34,11.34,0,0,1,230.65,76,14.89,14.89,0,0,1,224.53,77.21Z"/><path class="cls-2" d="M249.41,76.49V27.67h2.66V76.49Z"/><path class="cls-2" d="M17.17,132.13,32,91.06h3l-16.2,43.66H16.13L0,91.06H2.88l14.87,41.07Z"/><path class="cls-2" d="M50.73,135.44A12.92,12.92,0,0,1,44.19,134a9.69,9.69,0,0,1-3.76-3.73,9.45,9.45,0,0,1-1.22-4.59A8.84,8.84,0,0,1,41,119.84a9.58,9.58,0,0,1,4.59-3.06,19.42,19.42,0,0,1,6-.92,24.33,24.33,0,0,1,5.45.67,30.93,30.93,0,0,1,5.56,1.81v2.06a24.75,24.75,0,0,0-5.43-1.75,27.62,27.62,0,0,0-5.62-.67,12.54,12.54,0,0,0-6.71,1.75C43,120.89,42,122.87,42,125.65A7.55,7.55,0,0,0,44.06,131q2.05,2.17,6.63,2.18a11.65,11.65,0,0,0,5.67-1.48A13.29,13.29,0,0,0,60.71,128a7.39,7.39,0,0,0,1.68-4.46h.72a11.41,11.41,0,0,1-1.59,5.83,12.14,12.14,0,0,1-10.79,6.08Zm12-.72-.36-6.58V112.62c0-3.77-.84-6.42-2.5-8a9.73,9.73,0,0,0-6.83-2.3,14.86,14.86,0,0,0-4.53.68,7.47,7.47,0,0,0-3.46,2.25,6.32,6.32,0,0,0-1.33,4.23H40.57a8.31,8.31,0,0,1,1.77-5.59A9.62,9.62,0,0,1,47,101a20.87,20.87,0,0,1,6.1-.88,14.53,14.53,0,0,1,6.09,1.23,9.4,9.4,0,0,1,4.3,4,14.51,14.51,0,0,1,1.6,7.33v22.1Z"/><path class="cls-1" d="M79.45,134.72V76.47h2.67v58.25Z"/><path class="cls-2" d="M109.55,135.44a13.33,13.33,0,0,1-7.33-2.16,15.49,15.49,0,0,1-5.4-6.15,20.73,20.73,0,0,1-2-9.47,20.33,20.33,0,0,1,2-9.41,15.2,15.2,0,0,1,5.37-6,13.18,13.18,0,0,1,7.21-2.11,12.13,12.13,0,0,1,6.56,1.8,12.38,12.38,0,0,1,4.53,5.1,17,17,0,0,1,1.66,7.79h-1.62a13.59,13.59,0,0,0-1.59-6.89,10.53,10.53,0,0,0-4.1-4.14,10.9,10.9,0,0,0-5.36-1.39,10.2,10.2,0,0,0-5.76,1.8,13,13,0,0,0-4.38,5.2,18.78,18.78,0,0,0-1.67,8.3A19.4,19.4,0,0,0,99.32,126a12.82,12.82,0,0,0,4.38,5.29,10.33,10.33,0,0,0,5.85,1.82,10.77,10.77,0,0,0,5.18-1.37,10.9,10.9,0,0,0,4.16-4.1,13.08,13.08,0,0,0,1.64-6.81h1.62a17.12,17.12,0,0,1-1.64,7.74,12.3,12.3,0,0,1-4.48,5.06A12,12,0,0,1,109.55,135.44Zm11.23-.72-.25-7.48V85.91h2.59v48.81Z"/><path class="cls-2" d="M149.76,135.44a13.38,13.38,0,0,1-7.78-2.28,15.2,15.2,0,0,1-5.14-6.25,21,21,0,0,1-1.84-9,22.9,22.9,0,0,1,1.82-9.54,13.49,13.49,0,0,1,12.94-8.32,11.86,11.86,0,0,1,6.14,1.48,11.36,11.36,0,0,1,4,4,18.51,18.51,0,0,1,2.21,5.76,31.61,31.61,0,0,1,.69,6.66H137.27v-2.3H161.5l-1.66,1.08a24.63,24.63,0,0,0-.31-5.06,14.85,14.85,0,0,0-1.53-4.66,8.81,8.81,0,0,0-3.13-3.42,9.23,9.23,0,0,0-5.11-1.3,10.58,10.58,0,0,0-6.71,2.09,12.57,12.57,0,0,0-4,5.38,18.35,18.35,0,0,0-1.31,6.89V118a21.27,21.27,0,0,0,1.31,7.68,12,12,0,0,0,4,5.46,12.28,12.28,0,0,0,13.57-.07,8.75,8.75,0,0,0,3.11-6.16h3a12.61,12.61,0,0,1-2.34,5.81,11.43,11.43,0,0,1-4.54,3.57A15.05,15.05,0,0,1,149.76,135.44Z"/><path class="cls-2" d="M186.37,135.44a18.93,18.93,0,0,1-8-1.45,10.52,10.52,0,0,1-4.58-3.86,11.05,11.05,0,0,1-1.67-5.2H175a7.45,7.45,0,0,0,3.2,6.1q3,2.07,8.21,2.07a13.69,13.69,0,0,0,5-.9,9.74,9.74,0,0,0,3.78-2.5,5.24,5.24,0,0,0,1.46-3.62,4.78,4.78,0,0,0-1.91-4,17.14,17.14,0,0,0-6.09-2.5L182.88,118a15.8,15.8,0,0,1-7.07-3.64,7.7,7.7,0,0,1-2.43-5.72,7.27,7.27,0,0,1,3.31-6.23,14.45,14.45,0,0,1,8.53-2.34c3.93,0,7,.75,9.23,2.23a7.17,7.17,0,0,1,3.55,5.55h-3a5.53,5.53,0,0,0-3-4.18,14.48,14.48,0,0,0-6.78-1.33q-4.36,0-6.73,2a5.82,5.82,0,0,0-2.38,4.39q0,4.68,8,6.81l5.36,1.47a18.52,18.52,0,0,1,7.31,3.44,7,7,0,0,1,2.48,5.56,7.76,7.76,0,0,1-1.51,4.56,10.72,10.72,0,0,1-4.39,3.47A16.62,16.62,0,0,1,186.37,135.44Z"/><path class="cls-1" d="M84.05,35.85l-2.67.75c-1.19-.08-15.26-4-8-18.3A94.63,94.63,0,0,0,80.65.36C81.81-3.81,93.22,29.79,84.05,35.85Z"/></g></g></svg>