<svg xmlns="http://www.w3.org/2000/svg" viewBox="0 0 559.07 285.81"><defs><style>.cls-1{fill:#f5f4f2;}</style></defs><g id="Calque_2" data-name="Calque 2"><g id="Calque_1-2" data-name="Calque 1"><path class="cls-1" d="M76.66,112.28q1.74.7,1.74,2.1v.34a4,4,0,0,1-.7,2.79A5.21,5.21,0,0,0,76.31,120c0,.23-.23.35-.7.35v-.7a1.42,1.42,0,0,1-.35-1,.7.7,0,1,0-1.39,0c-.23.69-.41,1.28-.52,1.74a5.58,5.58,0,0,0-.18,1.39,2.39,2.39,0,0,0-.69,1.74.61.61,0,0,0,.69.7l.35-.35a2,2,0,0,0,.35-1.39l1,1.39a3.39,3.39,0,0,1,0,2.09,2,2,0,0,1-.7,1.4l-.7,2.09a7.32,7.32,0,0,1-.69,1.57,2.06,2.06,0,0,0-.35,1.22,2,2,0,0,0-.35,1.39V136c-.47,1.16-.87,2.32-1.22,3.48s-.76,2.33-1.22,3.49v1a4.59,4.59,0,0,1,0,3.49,3.64,3.64,0,0,0-.35,2.09,10.08,10.08,0,0,1-1,4.53l-.7.69c-.24.24-.35,1.05-.35,2.44a12.27,12.27,0,0,1-.7,5.58l-1,2.09-1.74,5.92c-.24.24-.35.93-.35,2.09a5.73,5.73,0,0,1,0,2.79c-.24.47-.47.93-.7,1.4a2.69,2.69,0,0,0-.35,1,2.8,2.8,0,0,0-.35,1.74c0,.24-.35,2.44-1,6.62a7.13,7.13,0,0,0-.35,2.79,1.4,1.4,0,0,1-.17.87.71.71,0,0,0-.18.52V191a2.53,2.53,0,0,1-.17,1.05,1.52,1.52,0,0,0-.18.7c0,.23-.23,1.51-.69,3.83a5.27,5.27,0,0,0-1.05,2.79c0,.23-.23,1.51-.7,3.83a26.67,26.67,0,0,0-1,4.36c-.24,1.51-.47,3-.7,4.35a29.89,29.89,0,0,0-.7,4.53L54.36,222v1.75a7.51,7.51,0,0,1,0,4.53,4,4,0,0,1-.7,2.78c-.47,2.1-.58,3.37-.35,3.84a6.57,6.57,0,0,1-.35,3.48,4,4,0,0,1-.17,1.22,2.74,2.74,0,0,0-.17.87c0,1.17.46,1.63,1.39,1.4h1.74c.7-.23,1.45-.47,2.27-.7a14.82,14.82,0,0,0,2.61-1.05l2.09-.69L68,237.38l2.78-.7,2.1-.7a32.87,32.87,0,0,1,3.31-1.39,47.53,47.53,0,0,1,4.7-1.39q5.22-1.39,9.93-2.27t8.89-1.57a58.2,58.2,0,0,0,8-1.39,12.86,12.86,0,0,1,5.92,0,2.81,2.81,0,0,1,2.09.7l2.44,1.74c.93.23,1.4,1,1.4,2.44a.31.31,0,0,0-.35.35c0,1.16.35,1.74,1,1.74q2.45,1.74,2.79,2.79l.35.34a2.37,2.37,0,0,1-.7,1.75c-.23,0-.35.06-.35.17s-.12.17-.34.17h-.35a2.36,2.36,0,0,0-1,.18,1.49,1.49,0,0,1-.69.17c-.94,0-2,.06-3.31.18s-2.85.29-4.71.52a12,12,0,0,0-3.83.7,7.39,7.39,0,0,1-2.79.34A39.9,39.9,0,0,0,95.13,244a27.65,27.65,0,0,1-8.37,2.09,4,4,0,0,0-1.22.17,2.75,2.75,0,0,1-.87.18l-4.18,1c-.7.7-1,.93-1,.7a16.09,16.09,0,0,1-4.19.35H73.87a14.93,14.93,0,0,0-3.66,1,7.2,7.2,0,0,1-3,.7c-.23,0-.58.23-1,.7a5.7,5.7,0,0,1-1.92.87,15.58,15.58,0,0,0-1.92.52c-.7.23-1.28.4-1.74.52a5.58,5.58,0,0,1-1.39.18c-1.17.46-2.56,1-4.19,1.57s-3.48,1.33-5.57,2.26l-8.36,4.18-7.67,4.18-7,3.84a1.81,1.81,0,0,0-.87.69,2.88,2.88,0,0,1-.52.7,1,1,0,0,0-.35.7.31.31,0,0,1-.35.34A7.52,7.52,0,0,1,23,273.27a24.13,24.13,0,0,0-6.62,5.22l-1,1.4a11.09,11.09,0,0,0-4.18,4.53,1,1,0,0,1-.35.69,2.34,2.34,0,0,1-1.74.7,4.66,4.66,0,0,1-2.44-.35,5.61,5.61,0,0,1-3.48-1.39C1,282.44,0,280.7,0,278.84v-4.53c0-.93.11-1.51.35-1.74a11,11,0,0,1,1.22-2.44c.35-.47.4-.47.17,0a7.45,7.45,0,0,1,1.74-1.39,1,1,0,0,0,.7-.35l.7-.7a10.41,10.41,0,0,1,2.79-2.44,58.92,58.92,0,0,0,5.57-3.48,24.66,24.66,0,0,1,4.88-3.14c1.86-.93,3.71-2,5.57-3.13a28,28,0,0,1,3.84-1.92c.92-.35,1.62-.64,2.09-.87a7.93,7.93,0,0,0,2.44-1.05,20.58,20.58,0,0,1,2.44-1.39c1.39-.47,2.78-1,4.18-1.57a30.38,30.38,0,0,0,3.83-1.91,2,2,0,0,0,1.39-.7V245a2.86,2.86,0,0,1-2.09-.69,3,3,0,0,1-2.09-1c-.23-.23-.47-.46-.69-.7a3.52,3.52,0,0,1-.7-1,9.63,9.63,0,0,0-1.74-2.44c-.47,0-.82-.81-1.05-2.44v-1.74a20.74,20.74,0,0,1,.35-3.66c.23-1.28.46-2.61.7-4a6.41,6.41,0,0,1,.35-2.09,6.92,6.92,0,0,0,.34-2.09,105,105,0,0,1,3.14-13.59,14.61,14.61,0,0,1,.7-4.35q.69-2.27,1.39-4.71A7,7,0,0,1,43,198a19.55,19.55,0,0,0,.87-3.13,10.34,10.34,0,0,1,.53-3.31,25.35,25.35,0,0,0,.87-3.66,10.34,10.34,0,0,1,.52-3.31,27.13,27.13,0,0,0,.87-3.31l4.18-18.47Q52.27,155.49,54,148t3.83-15.16a39.38,39.38,0,0,1,2.79-10.1,13.32,13.32,0,0,0,.52-2.44,5.7,5.7,0,0,1,.87-2.44q1-4.53,2.44-9.06c.93-3,1.75-6,2.44-9.06.7-2.55,1.45-5,2.27-7.49l2.61-7.84q1.05-3.48,2.26-7.14c.82-2.44,1.57-4.94,2.27-7.5q1.74-4.87,3.48-9.93t3.84-10.28c.69-2.09,1.45-4.18,2.26-6.27s1.68-4.18,2.62-6.27A3.67,3.67,0,0,1,89,35.1a9.26,9.26,0,0,0,.87-1.91,31.59,31.59,0,0,0,2.44-6.27c.46-.47.81-.7,1-.7a4.8,4.8,0,0,1,4.19-1,7.78,7.78,0,0,1,1.56.18,9.53,9.53,0,0,0,1.92.17,12.51,12.51,0,0,1,3.48,1.74,20.53,20.53,0,0,0,3.84,3.49,3.34,3.34,0,0,1,1.39,2.79v2.78a9.93,9.93,0,0,1-1.05,4.53,14.32,14.32,0,0,0-.69,1.74A18.82,18.82,0,0,1,107,45a12.29,12.29,0,0,1-1.39,1.75,5.47,5.47,0,0,0-1,1.39A3.32,3.32,0,0,0,103.14,51a20.23,20.23,0,0,1-.7,3.48c-.69,1.63-1.34,3.26-1.91,4.88a41.4,41.4,0,0,1-1.92,4.53,14.2,14.2,0,0,0-.7,1.74,18.61,18.61,0,0,1-1,2.44,20.63,20.63,0,0,1-1.57,2.62,7.59,7.59,0,0,0-1.22,2.61c-.23.7-.47,1.39-.7,2.09a19.2,19.2,0,0,1-1,2.44l-3.83,8.36a7.66,7.66,0,0,0-1.4,3,7.76,7.76,0,0,1-1,2.62,11.79,11.79,0,0,0-.7,1.74,22.39,22.39,0,0,0-.7,2.79q.35,1.39-1,4.53a15.27,15.27,0,0,1-1.75,3.65,30.54,30.54,0,0,0-1.74,3c0,.69-.23.81-.69.34l-.35-.34v-.7a.62.62,0,0,0-.7-.7l-.35.35a5.12,5.12,0,0,0-1.39,2.79,10.41,10.41,0,0,1-.7,2.44l-.7.69v3.49l.35.35a.31.31,0,0,0,.35.35c0-.23.23-.58.7-1A7.21,7.21,0,0,0,76.66,112.28Zm74.57-96.86a19.2,19.2,0,0,1-4.53-.7h-4.88c-1.17.23-2.27.41-3.31.52a29.12,29.12,0,0,1-3.31.18h-.35a11.22,11.22,0,0,0-5.58,0,28.62,28.62,0,0,1-5.22.69h-4.53a8.76,8.76,0,0,0-4.88,0,18.87,18.87,0,0,1-4.18.7q-3.49.35-8.37,1.22T90.6,20.64c-1.87.7-3.66,1.28-5.4,1.75s-3.44.93-5.06,1.39a13.58,13.58,0,0,0-1.74.7,3.13,3.13,0,0,1-1.39.34c-2.09,1.4-3,2-2.79,1.75a6.41,6.41,0,0,1-2.79,2.09c-.47,0-.7.06-.7.17s-.11.18-.34.18H70a15.34,15.34,0,0,0-5.23,2.09,24.66,24.66,0,0,1-4.88,1.74,6,6,0,0,0-1.74.87,2.32,2.32,0,0,1-1.39.52,26.77,26.77,0,0,1-3.49,1.4,14.92,14.92,0,0,0-2.44.69c-3.25,1.87-6.09,3.43-8.53,4.71s-4.59,2.38-6.45,3.31a62.8,62.8,0,0,0-8,5.92,13.43,13.43,0,0,1-3.49,2.44,10.26,10.26,0,0,1-3.48.35,24.63,24.63,0,0,1-3.84-1.74L16.73,51a7.8,7.8,0,0,1-3.49-5.58,28.71,28.71,0,0,1-.7-4.88c0-.22.23-.57.7-1l.35-.35L16.38,37a9.07,9.07,0,0,1,2.44-1.74,3.73,3.73,0,0,0,2.78-1.05l8.71-4.53a67.25,67.25,0,0,1,6.45-3.13c2.21-.93,4.47-2,6.8-3.14.69-.23,1.5-.52,2.44-.87a29,29,0,0,0,2.78-1.22,24.66,24.66,0,0,0,4.88-1.74q2.09-.69,5.4-1.92t7.84-2.61l5.58-1.4c1.85-.46,3.83-1,5.92-1.74L88.51,9.49a26.77,26.77,0,0,1,7.66-1c-.23,0,.35-.23,1.74-.7A3.64,3.64,0,0,1,100,8.1q1.4,1.05,4.53.35a9.69,9.69,0,0,0,3-.52,24.8,24.8,0,0,1,3.65-.88h.35a20.61,20.61,0,0,0,5.4-.69,39.63,39.63,0,0,1,5.75-1.05h.7c.23,0,.35,0,.35-.17s.11-.18.35-.18h1.74a23.14,23.14,0,0,0,2.61-.17c1-.11,2.15-.29,3.31-.52h.35a8.69,8.69,0,0,1,3.14-.35,6.58,6.58,0,0,0,3.48-.35,3.39,3.39,0,0,1,2.44-.35,10,10,0,0,0,3.49-.35,7.2,7.2,0,0,0,1.74-.17c.46-.12,1-.29,1.74-.52h5.4a21.74,21.74,0,0,1,4,.34q2.43,0,5.22.18a33.29,33.29,0,0,0,5.93-.18h3.13a1,1,0,0,0,.7.35h.7A5.16,5.16,0,0,0,176,4.61,15,15,0,0,1,179.8,7.4a3.21,3.21,0,0,0,1.74,2.09,3.64,3.64,0,0,0,.52,1.92,9.35,9.35,0,0,1,.87,1.92c.23,1.62-.34,2.44-1.74,2.44h-4.53a8.7,8.7,0,0,0-3.13-.35,34,34,0,0,1-9.76,0h-3.14a11.18,11.18,0,0,1-5.57,0,14,14,0,0,1-3.83-.35ZM57.49,155.84a23.63,23.63,0,0,0-2.09,7.67v.69a10.53,10.53,0,0,0-.69,2.09c-.24.93-.47,2.09-.7,3.49a1.61,1.61,0,0,0,1,1.74,6.26,6.26,0,0,1,1.05,3.14,20.6,20.6,0,0,0-.7,3.48l-2.44,8a7.29,7.29,0,0,0-.34,2.78,3.39,3.39,0,0,1,0,2.09,11.38,11.38,0,0,0-.7,3.49,10,10,0,0,1-1.05,4.53l-.69,1.39a2.61,2.61,0,0,0-.35,1.05,17.83,17.83,0,0,0-1,5.57c0,1.17-.06,2.44-.17,3.83s-.3,3-.52,4.88v.35a1,1,0,0,0,.34.7.62.62,0,0,0,.7-.7,18,18,0,0,1,1-3.83,18.64,18.64,0,0,0,1-3.83,41.73,41.73,0,0,1,1.74-8,3.14,3.14,0,0,1,.35-1.39,13.58,13.58,0,0,0,.7-1.74c0-.93.35-1.05,1-.35a.31.31,0,0,1,.35.35V197c0-.23.06-.35.18-.35s.17-.12.17-.35a3.64,3.64,0,0,0-.35-2.09,14.94,14.94,0,0,1,0-4.53v-.35c0-.23.06-.35.18-.35s.17-.11.17-.35l1.4-5.57a.61.61,0,0,1,.69-.7,1.39,1.39,0,0,0,1,.35v-5.23a2,2,0,0,1-.35-1.39,4,4,0,0,1,.7-2.79v-.35c0-.22,0-.34.17-.34s.17-.12.17-.35v-.7c.23-4,.82-6.73,1.75-8.36v-.7a1,1,0,0,1,.34-.7c0-1.62.12-2.55.35-2.78,0-.23.23-.58.7-1a1.42,1.42,0,0,0,1.05-.35c.92-.23,1-.81.34-1.74-1.39-.23-1.74-.92-1-2.09.7-1.39.92-2,.7-1.74a28.72,28.72,0,0,0,.69-3.14,10,10,0,0,1,1.05-4.53,3.62,3.62,0,0,0,.35-2.09,13.84,13.84,0,0,1,.69-2.44l.7-2.09a4.43,4.43,0,0,1,.17-1,7.18,7.18,0,0,0,.18-1.75,14.5,14.5,0,0,0,.7-1.74c.22-.7.46-1.51.69-2.44a4.78,4.78,0,0,1,.52-2.09,12.36,12.36,0,0,0,.88-2.44l1-4.18a6.68,6.68,0,0,0,.35-3.48.62.62,0,0,0-.7-.7c-.46-.46-.69-.35-.69.35-.47,0-.7.35-.7,1a4.63,4.63,0,0,1-.35,2.44l-2.44,5.93a39.65,39.65,0,0,0-1.74,7.31c-.23.7-.47,1.34-.7,1.92a4.36,4.36,0,0,0-.35,1.57,3.92,3.92,0,0,1-.87,1.57,1.64,1.64,0,0,0-.52,1.22,2.47,2.47,0,0,0-.35,2.78,11.58,11.58,0,0,1-.17,1.4c-.12.69-.3,1.62-.53,2.78a14,14,0,0,1-1.39,5.58l-1,3.14a.31.31,0,0,1-.35.34q-.36,0-1-.69v-2.09c0,.23-.06.34-.17.34s-.18.13-.18.35v.7Zm-.34,90.95a2,2,0,0,0,1.39-.35l.7-.35c-.47-.46-.82-.7-1.05-.7l-1,1.05c-.7,0-1,.12-1,.35,0,.46.11.69.35.69A.62.62,0,0,0,57.15,246.79Zm.34-56.45a1.49,1.49,0,0,0-.34-1.05l-.35.35V190c0,.69.11.93.35.69ZM66.9,242.6l-.35.35.35.35.35-.35Zm3.83-.69a.31.31,0,0,1-.34-.35,1.46,1.46,0,0,0-1-.35c-.47.47-.58.7-.35.7a.31.31,0,0,0,.35.34C69.57,242.72,70,242.6,70.73,241.91Z"/><path class="cls-1" d="M93,201.49c.22-1.16.56-2.56,1-4.18s1-3.49,1.68-5.58q2.66-4.53,5-9.41a33.84,33.84,0,0,1,6.57-9.06l1.74-1.74a3.39,3.39,0,0,0-.35-2.44,7.82,7.82,0,0,1-2.44-1,22,22,0,0,0-2.44-1.4c-1.86-1.16-2.78-2.2-2.78-3.13-.9,0-1.34-.35-1.34-1a44,44,0,0,0-4-4.35c-1.78-1.75-2.67-3.43-2.67-5.06a5.16,5.16,0,0,0-.7-2.61,4.65,4.65,0,0,1-.69-2.27,42.87,42.87,0,0,1,4.18-21.6,27.59,27.59,0,0,0,1.74-3.31,7.28,7.28,0,0,1,2.09-3q3.84-3.83,6.62-7.14a47.33,47.33,0,0,1,7.32-6.8q4.53-3.48,8.89-6.79a51.55,51.55,0,0,1,9.58-5.75,43.61,43.61,0,0,1,7.32-3.49,80.77,80.77,0,0,1,10.45-3.13q12.54-2.79,17.77-.35l4.18,2.44a9.2,9.2,0,0,1,2.09,4.53,10.59,10.59,0,0,1-1.74,6.62c-1.39,2.32-2.79,4.47-4.18,6.44a70.57,70.57,0,0,1-4.53,5.75c-2.09,2.09-3.26,3.49-3.49,4.18l-4.53,5.58a33.06,33.06,0,0,0-6.27,8.36,4.39,4.39,0,0,1-2.09,2.09,11.18,11.18,0,0,0-3.13.7h-1.75a9.92,9.92,0,0,1-2.44-.35c-.93-.23-1.74-.46-2.44-.7-.23,0-.34-.34-.34-1a9.52,9.52,0,0,1,1-4.88q4.88-5.56,8.54-9.58t6.44-6.8l8-9.06a11.81,11.81,0,0,0,2.79-7c0-.7-.59-1.28-1.76-1.75a8.87,8.87,0,0,0-4.2,1.4,4.19,4.19,0,0,0-1.93.87,2.15,2.15,0,0,1-1.58.52c-1.4,0-2.22.47-2.45,1.39a35.14,35.14,0,0,1-10.52,6.28c-.23.23-.4.34-.52.34s-.3.12-.53.35l-.7.7-4.2,3.14q-3.15,2.79-6,4.87l-5.61,4.19L118.56,121l-3.86,4.18a45.87,45.87,0,0,0-9.46,13.59,11.18,11.18,0,0,0-.7,2.78,4.78,4.78,0,0,0-1.05,3.49v2.09q-.7,8.35,7.36,13.59c.46.47.81.7,1.05.7a9.86,9.86,0,0,0,3,2.09c1.05.46,2,.93,3,1.39l2.11-1.74a32.42,32.42,0,0,1,6.65-4.18h1.06c0-.23.35-.7,1-1.4l2.81-1.39.7-.7c.23-.23.4-.35.52-.35s.29-.11.53-.35a.31.31,0,0,0,.35-.34q2.45-1.74,5.26-3.49t6-3.83a15.67,15.67,0,0,0,1.75-1,15.94,15.94,0,0,1,2.81-1.39l2.1-1.39,2.1-1.05,5.62-3.13.34-.35c1.4-.23,2.56-.41,3.49-.53a19.71,19.71,0,0,1,2.09-.17h.7c.46.47.81.7,1,.7l.35.35.35.34a2,2,0,0,1-.35,1.4,5.86,5.86,0,0,1-1.74.69l-.7.35-1.39.7-1.4.7a35.61,35.61,0,0,1-3.83,2.26l-3.13,1.57c-.94.47-1.81.93-2.62,1.39s-1.45.82-1.91,1a5.55,5.55,0,0,1-2.1,1.39,2,2,0,0,1-1.39.7l-1,1h-.35a4.05,4.05,0,0,1-1.05.7c-.47.23-1.39.82-2.79,1.74a8.73,8.73,0,0,0-2.26,1.57L138,158.28h0l-2.79,1.39a21.45,21.45,0,0,1-2.61,2.27,21.23,21.23,0,0,1-2.61,1.57,10.8,10.8,0,0,0-2.79,2.09,7.09,7.09,0,0,1-2.09,1.39l-1.39.7,7.31,6.62a.31.31,0,0,1,.35.35q3.48,3.48,4.18,11.15v1.39a108.2,108.2,0,0,1-6.27,13.59,7.63,7.63,0,0,1-3.14,2.44c-.69.23-1.16.23-1.39,0q3.14,1.74-3.48,8.36Q115,218.22,111.15,220a5,5,0,0,1-3.48,1.75c-1.4,0-2.21.47-2.44,1.39-.24.23-1.28.35-3.14.35a2.8,2.8,0,0,1-.87-.18,4.08,4.08,0,0,0-1.22-.17,17.48,17.48,0,0,1-5.23-3.83c-1.16-.7-1.74-2.09-1.74-4.18A66.56,66.56,0,0,1,93,201.49Zm4.88,5.57a10.31,10.31,0,0,1-.17,1.92,11.58,11.58,0,0,0-.18,2.26q.69,4.89,6.62,3.49l2.79-2.09a23.79,23.79,0,0,1,2.61-3.49A14.94,14.94,0,0,0,112.2,205a21.24,21.24,0,0,0,1.74-3c.23-.58.23-.64,0-.17q2.09-2.44,7.32-12.55l1.74-5.57a11,11,0,0,0-2.79-8q-3.48-3.13-4.53-2.44a10.31,10.31,0,0,1-1.74,1.92,21.11,21.11,0,0,0-2.09,1.92c-.7.93-1.22,1.68-1.57,2.26a8.24,8.24,0,0,1-1.22,1.57,10.49,10.49,0,0,1-1,1.39,7.36,7.36,0,0,0-2.09,3c-.69,1.52-1.39,2.39-2.09,2.62l-1,5.22a.31.31,0,0,0-.35.35,1,1,0,0,0-.35.7,1,1,0,0,1-.35.7,30.72,30.72,0,0,0-1.57,4.53c-.34,1.39-.75,2.9-1.21,4.53C99.18,203.7,98.84,204.74,97.91,207.06Zm21.26-41.81a6.14,6.14,0,0,1,.69.87,1.57,1.57,0,0,0,1.4.52v-.35c.69-.46,1.44-.92,2.26-1.39a11,11,0,0,0,2.27-1.74,23.69,23.69,0,0,0,3.83-2.79l.7-.7a2.45,2.45,0,0,0,2.09-2.09h0v-.35l.69-.34.7-.7-.35-.7h-1l-.35,1a12.87,12.87,0,0,1-3.84,2.09.31.31,0,0,1-.34.35.31.31,0,0,0-.35.34,8.69,8.69,0,0,1-3.49,2.1l-3.13,2.78-1.4.7Zm12.89-62-8,5.58-.69.7a1,1,0,0,0-.35.69q-1.05.7-1,1v1h1c1.39-.92,2.61-1.68,3.66-2.26a10.57,10.57,0,0,0,2.26-1.57l4.53-3.83a2,2,0,0,0,.35-1.4Zm2.79,51.57-.35.35h.35l.34-.35a.92.92,0,0,0,1.05-1h1v-.35h-.34l-.7.35c-.47,0-.82.35-1.05,1Zm2.09.35h-.7v.35l-.7.7h.35c0-.46.11-.7.35-.7Zm.69-54.7a6.18,6.18,0,0,0-1.74.69v1.05q0,.7,1.05,0a6.18,6.18,0,0,0,.69-1.74c.47,0,.58-.12.35-.35ZM139,152.7q-.71-.33-1.05,0H139l.35-.34.34-.7-.69.7Z"/><path class="cls-1" d="M165.85,165.6a24,24,0,0,1,.7-7.32,10,10,0,0,0,.7-2.27c.23-1,.47-2.38.7-4a30.67,30.67,0,0,1,4.87-12.2q2.1-3.13,4.18-7a80.05,80.05,0,0,1,4.53-7.31q3.48-5.23,5.93-6.62l1.39-1.4c.23-.92,1.16-1.62,2.79-2.09l4.18-2.09a6.94,6.94,0,0,0,4.18-1.74c.23-.23,1.16-.35,2.79-.35a18.7,18.7,0,0,0,3.83,1c1.86,0,4.06,1,6.62,3.14A6.63,6.63,0,0,1,216,121c0,.93-.58,1.39-1.74,1.39h-.35q-5.92-.35-9.41,3.48l-4.88,5.23a8.11,8.11,0,0,0-1.56,2.09,19.53,19.53,0,0,1-1.22,2.09,76.59,76.59,0,0,0-8.71,13.24,2,2,0,0,0-.7,1.4l-7,18.81c-.93,1.63-1.17,4.42-.7,8.37,0,.69.46,1,1.4,1a4.47,4.47,0,0,0,1.74-1c2.09-2.1,3.25-3.72,3.48-4.88l1.75-1.75,4.52-6.27A27.88,27.88,0,0,1,195.3,160c1-1.39,2-2.79,3-4.18a1.42,1.42,0,0,0,.87-.52,4.5,4.5,0,0,1,1.22-.87,13.13,13.13,0,0,0,3.83-5.23l1-2.09a52.1,52.1,0,0,0,7-9.41q5.91-9.41,9.75-14.29c1.67-2.09,3.27-4.23,4.81-6.44a65.48,65.48,0,0,1,5.17-6.45l.72-.69c.23-1.63.82-2.44,1.78-2.44l3.2,1a10.41,10.41,0,0,1,2.44.7,14.9,14.9,0,0,1,3.84,2.79,5.47,5.47,0,0,1,1,1.39c.23.47.46.93.7,1.39a11.38,11.38,0,0,0,.7,3.49c.22.93.4,1.74.52,2.44a6.23,6.23,0,0,1-.18,2.44c-.46,3.25-.93,6.15-1.39,8.71s-.93,4.65-1.39,6.27a66,66,0,0,0-2.27,8.89q-.87,4.69-1.92,8.88a24,24,0,0,0-1.21,6.27,38.62,38.62,0,0,1-.88,6.27v.35a27.35,27.35,0,0,1,.53,6.8,23.39,23.39,0,0,0,.52,6.44c0,1.63.81,4,2.44,7A3,3,0,0,0,244.6,191h1.75a16.47,16.47,0,0,0,7.31-3.48,6,6,0,0,0,1.92-1.05c.58-.46,1.22-.92,1.92-1.39a4.3,4.3,0,0,1,3.13-1.39c2.09-.47,3.25-1.51,3.49-3.14a12.56,12.56,0,0,1,4.87-5.92,4.56,4.56,0,0,0,1.22-.87,10.15,10.15,0,0,1,1.57-1.22c1.62-1.63,3.31-3.19,5.05-4.71s3.54-3.19,5.41-5.05q1.74-1.74,4.18-4.36t5.92-6.44l3.14-3.14,2.44-2.44c.46-1.16,1.74-1.74,3.83-1.74a2.36,2.36,0,0,1,2.09,1.05q.69,1.74-1.22,5a22.33,22.33,0,0,1-6.1,6.44,17.25,17.25,0,0,0-2.26,3.66c-.59,1.28-1.11,2.5-1.57,3.66a22.41,22.41,0,0,1-3.49,4.88q-1.4,1-4.87,6.1A55.57,55.57,0,0,1,278.4,183q-3.48,3.48-6.79,7a52.39,52.39,0,0,1-7.15,6.27l-1.39,1.39a32,32,0,0,0-6.62,3.84c-.23,0-.35.06-.35.17s-.12.18-.35.18h-.34c-1.4,0-2.74-.06-4-.18a11.07,11.07,0,0,1-4-1.22L242.86,198a26.14,26.14,0,0,1-9.53-7.66c-2.14-2.09-3.32-3.72-3.56-4.88-.72-1.4-1.43-2.67-2.14-3.83a19.34,19.34,0,0,1-1.78-3.84Q223,170.47,223,165.6a35.85,35.85,0,0,1-.17-6.1c.11-2,.17-4,.17-6.1v-4.18c0-.93-.23-1.39-.7-1.39h-1a25,25,0,0,0-1.92,3,11.77,11.77,0,0,1-1.92,2.61,71.43,71.43,0,0,1-4.53,7.84q-2.43,3.66-4.52,7.49c-.7,1.4-1.17,2.09-1.4,2.09a43.63,43.63,0,0,0-3.83,5.23,28.13,28.13,0,0,1-3.83,4.88,14.06,14.06,0,0,0-1.75,2.09,11.62,11.62,0,0,1-1.39,1.74,15.69,15.69,0,0,1-2.44,2.79,5.45,5.45,0,0,0-3.31,1.74,18,18,0,0,1-2.61,2.44c-.47.93-1.63,1.17-3.49.7a2.28,2.28,0,0,1-1-.18,1.67,1.67,0,0,0-.7-.17l-7.32-4.18a12.89,12.89,0,0,1-4.53-4.88q-2.43-4.53-2.78-5.23a17.06,17.06,0,0,1-2.1-10.45Zm105.23,12.19a2.74,2.74,0,0,0,1.75-.35L276,175l4.53-4.53,3.66-3.65a11.8,11.8,0,0,0,2.27-3c.46-.46.69-.81.69-1a2.07,2.07,0,0,0-.34-1.39h-.35c-.7,0-1.05.12-1.05.34l-5.92,5.93q-3.49,3.48-8,8.36a.31.31,0,0,0-.35.35.68.68,0,0,1-.17.52.7.7,0,0,0-.17.52c-.93,0-1.86.82-2.79,2.44-.24.24-.12.59.35,1.05h1C270.5,180.47,271.08,179.42,271.08,177.79ZM288.86,160a1.87,1.87,0,0,0,2.09-1.39l-.35-.7c0-.93-.35-1-1.05-.35-.69,0-1,.59-1,1.74a1.6,1.6,0,0,0-1.74,1.05v.7a.31.31,0,0,0,.34.35h.7C288.51,161.42,288.86,161,288.86,160Z"/><path class="cls-1" d="M335.12,184.76c-2.74,1.86-4.1,2.56-4.1,2.09.22-.69-1.09-.46-4,.7a24.52,24.52,0,0,1-3.79,1.39c-1.56.47-3.39.93-5.49,1.4a5.46,5.46,0,0,0-1.56.17,2.8,2.8,0,0,1-.88.17,29.21,29.21,0,0,1-12.19,1.4H300.7c-2.32,0-3.72.23-4.18.7h-.35l-.7,2.78a59.74,59.74,0,0,1-4.18,9.06,3.25,3.25,0,0,1-2.09,1.75,7.39,7.39,0,0,0-2.79.34,6.2,6.2,0,0,1-5.57-2.44l-1.39-2.78c-1.86-.47-2.56-2.09-2.1-4.88a1.53,1.53,0,0,0-.17-.7,2.51,2.51,0,0,1-.17-1,3.64,3.64,0,0,1-.35-2.09c.23-.7.47-1.34.69-1.92a5,5,0,0,0,.35-1.92l.35-.35a57.83,57.83,0,0,0,3-8q1.23-4.19,2.62-8.71c.46-2.09.93-3.83,1.39-5.23a28.83,28.83,0,0,1,1.39-3.48,2.34,2.34,0,0,0,.7-1.74,59.06,59.06,0,0,1,1.92-8c.81-2.55,1.69-5.23,2.61-8a51.69,51.69,0,0,1,2.79-8.19q1.74-4,3.13-8.19l4.19-10.45q2.08-5.93,3.48-10.46c.93-3,1.62-5.45,2.09-7.31v-.7a86.19,86.19,0,0,0,4.88-15.16q1.74-7.83,4.18-15.85L320.56,51a62.88,62.88,0,0,1,1.22-8.19,38.47,38.47,0,0,0,.87-8.19,14.48,14.48,0,0,1,1.42-5.92,1.92,1.92,0,0,1,2.14-1.4,28.77,28.77,0,0,1,8.9,0,4.5,4.5,0,0,1,1.06.7l.71.7a30,30,0,0,1,1.43,5.92,43.87,43.87,0,0,0,1.07,5.58,26.05,26.05,0,0,1-.18,3,25.82,25.82,0,0,0-.17,3,11.12,11.12,0,0,0-.7,2.79,62.2,62.2,0,0,1-1.74,11.5c-.93,3.72-1.74,7.31-2.44,10.8-.23.69-.47,1.39-.7,2.09a19.2,19.2,0,0,1-1,2.44q-1.4,2.08-3.49,10.45l-4.18,15c-.23.47-.58,1.34-1,2.62a48.1,48.1,0,0,0-1.4,4.7L320.56,114a53.7,53.7,0,0,1-2.44,6.09,14.18,14.18,0,0,0-1.39,6.1,6.59,6.59,0,0,1-.35,2.09,5.84,5.84,0,0,0-.35,1.75v.69a.31.31,0,0,0,.35.35c.46,0,.7-.11.7-.35l1.39-1.74a7.41,7.41,0,0,1,4.53-5.23,11.38,11.38,0,0,1,4-3.13c1.51-.7,3.07-1.51,4.7-2.44a21.58,21.58,0,0,1,3.49-.7c1.39,0,2.2-.11,2.44-.35,1.6-.69,2.81-.81,3.61-.35a9.46,9.46,0,0,0,3.25,1,29.19,29.19,0,0,1,9.25,6.62q-.35-.69,2.74,2.44c1.37,1.39,2.05,2.67,2.05,3.83a4.63,4.63,0,0,0,.35,2.44c.7,1.86,1.05,5.35,1.05,10.45a13.25,13.25,0,0,1-1.38,4.88,1.37,1.37,0,0,1-1,1.4,1.54,1.54,0,0,0-.35,2.09c.46,1.16.12,2.32-1,3.48a1,1,0,0,0-.69.35q-2.4.34-3.43,3.48a5.8,5.8,0,0,0-1.2,2.27l-1.2,3.66c-1.38,2.79-2.58,5.22-3.61,7.32a28.38,28.38,0,0,1-2.91,4.87,12.71,12.71,0,0,1-2.06,2.44,2,2,0,0,1-2.06.7c.23,1.63-.46,2.44-2.06,2.44l-1.05,1.39a1,1,0,0,1-.69.35l1.39-1.39h.35a2.16,2.16,0,0,1,2.44-2.44,2.9,2.9,0,0,1,.67-2.09q2.37-4.53,4.56-9.58t4.22-11a37,37,0,0,0,1.35-9.06v-.35a1.43,1.43,0,0,0-1.05.35l-.69,2.79a14.25,14.25,0,0,1-1.37,5.57,11.06,11.06,0,0,1-.69,1.22,1.76,1.76,0,0,0-.33.87,31.76,31.76,0,0,0-1.37,5.75,17.39,17.39,0,0,1-1.71,5.4L340.92,175q-2.73,2.1-2.9,4.53a8.63,8.63,0,0,1-2.22,4.88A1,1,0,0,0,335.12,184.76Zm-20.48-3.13H315a4.12,4.12,0,0,1,3.13-.7h1.05a24.73,24.73,0,0,1,5.22-3.49,19.42,19.42,0,0,1,3.14-2.78,26.33,26.33,0,0,0,8-10.46,22.5,22.5,0,0,1,2.79-4.53,19.44,19.44,0,0,1,1.75-3.83,11.72,11.72,0,0,1,1.74-4.18c.92-2.79,1.68-5.4,2.26-7.84a53.89,53.89,0,0,0,1.22-7.14,5.17,5.17,0,0,1,.35-1.92,5.17,5.17,0,0,0,.35-1.92,1.26,1.26,0,0,0,0-1.74,15.86,15.86,0,0,0-3.14-7,4.18,4.18,0,0,0-3.13-.7,12.24,12.24,0,0,0-3.49,1.75l-9.75,6.62q-2.44,2.08-4.19,3.66a10.35,10.35,0,0,0-2.43,3q-2.44,3.14-4.71,6.1t-4.35,6.09a28.58,28.58,0,0,0-4.53,8.37c-.94,2.78-1.69,5.05-2.27,6.79s-1,3.08-1.22,4a2.76,2.76,0,0,0-.35,1.74,26.34,26.34,0,0,1-.69,2.79,15.21,15.21,0,0,1-.7,1.74,28.19,28.19,0,0,0-1.05,3.48q-1.74,4.89,3.49,4.19h.7c3.71-.47,5.69-.58,5.92-.35,2.09,0,3.6-.47,4.53-1.4Z"/><path class="cls-1" d="M432.41,125.18c.23,3.25-.58,5.81-2.44,7.66a42.75,42.75,0,0,1-8.71,8.37l-3.13,2.43-5.93,4.19Q403.49,153.39,391,151H389.9a1.76,1.76,0,0,0-2.09.7,58.92,58.92,0,0,0-3.48,5.57q-1.4,3.5-2.27,6.1a31,31,0,0,0-1.22,4.71,22.07,22.07,0,0,0,.35,15c0,.47.46,1.16,1.39,2.09a47.14,47.14,0,0,1,3.84,2.79A14.8,14.8,0,0,0,399,190a7.51,7.51,0,0,1,4.53,0c.23.47.93.47,2.09,0h4.18L415,187.9a15.84,15.84,0,0,0,2.61-.7c.58-.23,1.1-.46,1.57-.7a67.21,67.21,0,0,1,8-4.35,60.35,60.35,0,0,0,8.36-4.71q2.43-1.74,4.18-3.13a16,16,0,0,0,2.79-2.79l3.66-3.66a12,12,0,0,1,3-2.26l4.88-4.53q4.51-5.23,7-6.62a3.33,3.33,0,0,0,2.09-1.75l5.22-5.92,1.4-1.74c.69-1.4,2.32-2.09,4.87-2.09a.93.93,0,0,1,1.05,1,13.86,13.86,0,0,1-.7,2.44,16.08,16.08,0,0,0-2.09,4.53,20.3,20.3,0,0,0-1.91,3.14c-.59,1.16-1.11,2.32-1.57,3.48a41,41,0,0,1-1.92,4c-.82,1.51-1.8,3.31-3,5.4l-1.74,2.09q-2.79,2.44-4.71,4.36a32.67,32.67,0,0,0-3,3.31,9.15,9.15,0,0,1-2.09,2.09c-1.39.93-2.79,1.91-4.18,3s-2.67,2-3.83,3a1,1,0,0,1-.7.35,1,1,0,0,0-.7.35,40.58,40.58,0,0,0-9.75,5.57q-2.44,1.75-9.76,4.53a12.77,12.77,0,0,1-1.74.7,24.33,24.33,0,0,1-2.79.7,2,2,0,0,1-1.39.35,28.24,28.24,0,0,0-9.41,2.78l-2.79.7a4.38,4.38,0,0,1-2.44,0,31.74,31.74,0,0,0-5.57-.87,24.31,24.31,0,0,1-5.23-.87,10,10,0,0,1-5.23-1.74,24.8,24.8,0,0,1-6.27-3.49c-.93,0-1.39-.35-1.39-1a35,35,0,0,0-2.79-2.44c-1.17-.93-2.56-2-4.18-3.14l-1.4-1.39a11.77,11.77,0,0,1-2.43-5.58,71.29,71.29,0,0,1-2.79-15,64.12,64.12,0,0,1,1-13.94c.24-.7.53-1.74.87-3.14a48.37,48.37,0,0,1,1.57-4.87q4.53-10.8,9.41-16.73,2.08-3.13,3.66-5.4a26.33,26.33,0,0,1,3-3.66l2.79-2.79q4.19-5.22,12.89-7.66c-.23,0,.35-.23,1.74-.7s3.14-.92,5.23-1.39a55.86,55.86,0,0,1,7.67-1,23,23,0,0,1,9.75,1.74,9.06,9.06,0,0,1,4.18,4.19,19.59,19.59,0,0,1,2.09,5.57,28.87,28.87,0,0,0,.18,3.31,31.71,31.71,0,0,1,.17,3.31ZM422,113.33v-1c0-.92-.58-1.39-1.74-1.39l-7,2.09q-7,3.84-9.76,9.06c-1.39,2.09-2.32,3.26-2.79,3.49a3.65,3.65,0,0,0-1.39,3.13q-1.4,4.18-1.05,3.83a6.48,6.48,0,0,0-2.26,3.14,9.85,9.85,0,0,1-1.57,3.14,2.81,2.81,0,0,0-.69,2.09c-.94.93-.82,1.39.34,1.39a1.39,1.39,0,0,0,1.05.35c.92-.23,1.91-.46,3-.7a34.8,34.8,0,0,0,3.66-1,11.18,11.18,0,0,0,2.44-1.05l10.1-7.32q8-5.57,7.67-13.58v-5.58Z"/><path class="cls-1" d="M544.61.09a61.85,61.85,0,0,1,9.06,3.83q5.24,4.19,5.23,9.41a17.27,17.27,0,0,1,0,4.87,7.18,7.18,0,0,1-.18,1.75,7.1,7.1,0,0,0-.17,1.74,13.27,13.27,0,0,1-1,5.23q-1.74,4.17-3.13,7.31A47,47,0,0,1,552,39.11c-.47.93-.93,1.86-1.39,2.79a13.18,13.18,0,0,0-1,2.79,10.53,10.53,0,0,0-1.56,3,11.79,11.79,0,0,1-1.21,2.61,15,15,0,0,0-1.74,3,18.86,18.86,0,0,1-1.38,2.62,42.11,42.11,0,0,1-3.82,6.27A15.34,15.34,0,0,0,537,66.64a100,100,0,0,0-5.72,8.53,100.89,100.89,0,0,1-5.72,8.54l-3.47,4.88A56.84,56.84,0,0,0,519,93.47a33.13,33.13,0,0,1-3,3.83,32.81,32.81,0,0,0-2.94,3.83l-1.39,1.4-6.6,6.27-10.4,9.76a40.17,40.17,0,0,0-5.55,5.22,46.68,46.68,0,0,1-4.86,4.88q-.69.71-.69,1.05h-.34c.46,3.25.57,5,.34,5.22L481.1,145a18,18,0,0,1-1.46,4.18,2.9,2.9,0,0,0-.37,3.14v2.78a11.7,11.7,0,0,0-.73,3.84,17.15,17.15,0,0,1-.37,3.48v.7a17.43,17.43,0,0,0-.73,5.05,34.5,34.5,0,0,1-.36,5,12.57,12.57,0,0,0-.73,3.31c-.25,1.75-.49,4-.73,6.8a77.12,77.12,0,0,0-.87,9.06q-.18,4.53-.53,9.06a9.39,9.39,0,0,0,.18,1.91,10.39,10.39,0,0,1,.17,1.92,13.11,13.11,0,0,0,.35,3.14,11.57,11.57,0,0,1,.35,2.78,7.21,7.21,0,0,0,0,3.14,5.73,5.73,0,0,1,0,2.79v1a34.79,34.79,0,0,1,1.22,7.49,46.57,46.57,0,0,0,.87,7.15,9.24,9.24,0,0,0,1.39,4.53,29.28,29.28,0,0,0,3.49,5.92c.93,1.86,2,2.21,3.14,1a29.28,29.28,0,0,0,5.92-3.49,36.45,36.45,0,0,0,7.32-7.32,28.13,28.13,0,0,1,2.61-3,37.35,37.35,0,0,0,3-3.31,19.85,19.85,0,0,0,2.79-3.13l8.36-12.9c1.4-2.32,2.67-4.64,3.83-7s2.32-4.64,3.49-7L525.1,191a73.48,73.48,0,0,0,3.48-7.31q1.74-4.18,3.49-9.76a13.69,13.69,0,0,0,.69-1.74,18,18,0,0,1,1-2.44l2.79-4.88,4.18-8q1.05-2.1,2.44-4.71a46.88,46.88,0,0,0,2.44-5.4,4.34,4.34,0,0,1,2.09-2.09q1,0,3.83-2.79h.7v.35a3.62,3.62,0,0,1-.35,2.09q-1,2.44-1.92,4.88t-1.57,4.53a17.35,17.35,0,0,0-1.39,3.83l-1.74,5.93a15.29,15.29,0,0,0-1.4,3.83c-.23,1.16-.46,2.21-.69,3.13a25.39,25.39,0,0,1-.7,2.79,13,13,0,0,1-.7,1.74,18.1,18.1,0,0,0-2.44,8,9.35,9.35,0,0,1-.87,1.92,3.19,3.19,0,0,0-.52,1.56,13.78,13.78,0,0,0-2.09,5.23,11,11,0,0,1-.7,1.22,1.73,1.73,0,0,0-.35.87c-1.16,3-2,4.77-2.43,5.23L530,203.93l-3.84,8.71a11.91,11.91,0,0,1-1.74,3.48,100.5,100.5,0,0,0-5.75,8.54,50,50,0,0,1-5.75,7.84,18,18,0,0,0-1.91,2.26c-.59.82-1.11,1.57-1.57,2.27a66.65,66.65,0,0,1-12.2,11.85q-4.53,4.17-8.36,3.48-2.44,1-9.76-.7a4.29,4.29,0,0,0-1.74-1,56.11,56.11,0,0,1-5.57-5.23q-6.29-7.32-9.06-19.16a17.66,17.66,0,0,1-.87-4.36,23.58,23.58,0,0,0-.88-4.7c-.22-.93-.46-2.09-.69-3.49s-.47-3-.7-4.88l-1-19.51c0-1.16.06-2.73.18-4.7s.29-4.24.52-6.8a25.12,25.12,0,0,1,.35-5.57,17.14,17.14,0,0,1,.17-2.27,15.55,15.55,0,0,0,.18-2.26c.23-1.16.41-2.21.52-3.14a19.21,19.21,0,0,0,.18-2.44c.69-4.18,1.28-8.3,1.74-12.37a121.06,121.06,0,0,1,2.09-12.37l1-5.57c.47-2.79,1.1-5.87,1.92-9.24s1.8-7,3-11c.46-1.63,1-3.54,1.57-5.75s1.22-4.82,1.92-7.84q1.38-5.93,2.78-11.15c.93-3.49,1.86-6.5,2.79-9.06h.35c.23-.7.46-1.45.7-2.27a14.73,14.73,0,0,1,1-2.61c.93-2.32,2-4.7,3.14-7.14s2.32-4.94,3.48-7.49a12.87,12.87,0,0,1,2.09-3.84,54.18,54.18,0,0,1,3.31-6.27c1.28-2.09,2.62-4.29,4-6.62l.35-.7a97.55,97.55,0,0,1,9.41-14.28,24.21,24.21,0,0,0,2.09-2.44l2.09-2.79a45.74,45.74,0,0,1,5.23-6.27q2.78-2.79,5.57-5.23a23.79,23.79,0,0,1,7-4.53A43,43,0,0,1,539,.78,11,11,0,0,1,544.61.09ZM497.92,74.3l-.7,3.49a23.76,23.76,0,0,0-1,3.13,11.08,11.08,0,0,1-.7,2.09q-1.05,3.49-2.79,8.54a94.43,94.43,0,0,0-2.78,9.58,7.18,7.18,0,0,1-.18,1.75,4.43,4.43,0,0,0-.17,1c-.47,1.4-.7,2-.7,1.74a13.86,13.86,0,0,1-.7,2.44,45,45,0,0,0-1.74,7h.35l1.39-1,5.93-4.88,4.53-4.18,2.09-2.09,5.22-5.58,4.53-5.23a9.2,9.2,0,0,0,1.75-2.43L530.33,63.5c1.85-3,3.71-6.1,5.57-9.23s3.71-6.45,5.58-9.93L545.66,36l4.18-9a29.08,29.08,0,0,0,2.79-10.11q.69-4.87-2.09-7.66l-.35-.7a9.43,9.43,0,0,0-3.49-3.14c-1.86-.46-2.91-.23-3.13.7a9.32,9.32,0,0,1-2.44,1.74,4.28,4.28,0,0,0-3.84,2.44,23.46,23.46,0,0,1-5.92,5.92L530,17.16l-3.84,4.18a12.19,12.19,0,0,0-2.78,3.48q-.36,2.45-3.84,6.28-2.09,2.79-3.66,5t-3,4a11.54,11.54,0,0,1-1.22,2.43c-.35.47-.41.47-.17,0a41.28,41.28,0,0,1-1.57,4,16,16,0,0,0-1.22,4c0,1.16-.7,2.56-2.09,4.18A15,15,0,0,0,504.19,59a37.8,37.8,0,0,0-1.74,4c-.47,1.28-.93,2.5-1.39,3.66l-1.75,3.83a2.35,2.35,0,0,0-.69,1.74Z"/></g></g></svg>